<svg width="31" height="26" viewBox="0 0 31 26" fill="none" xmlns="http://www.w3.org/2000/svg">
<path d="M14.725 26C13.8725 26 13.0908 25.7895 12.3799 25.3684C11.6689 24.9473 11.1073 24.3931 10.695 23.7059C10.4108 23.1961 10.385 22.6863 10.6175 22.1765C10.85 21.6667 11.2892 21.4118 11.935 21.4118C12.1933 21.4118 12.4517 21.4882 12.71 21.6412C12.9683 21.7941 13.2396 22.049 13.5238 22.4059C13.6529 22.5843 13.8276 22.7184 14.0477 22.8081C14.2678 22.8978 14.4935 22.9422 14.725 22.9412C15.1642 22.9412 15.5326 22.7944 15.8302 22.5007C16.1278 22.2071 16.276 21.8441 16.275 21.4118C16.275 20.9784 16.1262 20.6149 15.8286 20.3213C15.531 20.0276 15.1631 19.8813 14.725 19.8824H1.55001C1.11084 19.8824 0.742455 19.7355 0.444855 19.4419C0.147255 19.1482 -0.00102797 18.7853 5.36332e-06 18.3529C5.36332e-06 17.9196 0.148805 17.5561 0.446405 17.2625C0.744005 16.9688 1.11187 16.8225 1.55001 16.8235H14.725C16.0167 16.8235 17.1146 17.2696 18.0188 18.1618C18.9229 19.0539 19.375 20.1373 19.375 21.4118C19.375 22.6863 18.9229 23.7696 18.0188 24.6618C17.1146 25.5539 16.0167 26 14.725 26ZM1.55001 10.7059C1.11084 10.7059 0.742455 10.5591 0.444855 10.2654C0.147255 9.97176 -0.00102797 9.60878 5.36332e-06 9.17647C5.36332e-06 8.74314 0.148805 8.37965 0.446405 8.086C0.744005 7.79235 1.11187 7.64604 1.55001 7.64706H20.925C21.5967 7.64706 22.1521 7.43039 22.5913 6.99706C23.0304 6.56373 23.25 6.01569 23.25 5.35294C23.25 4.6902 23.0304 4.14216 22.5913 3.70882C22.1521 3.27549 21.5967 3.05882 20.925 3.05882C20.4858 3.05882 20.0916 3.15467 19.7424 3.34635C19.3931 3.53804 19.1156 3.8118 18.91 4.16765C18.7033 4.55 18.4579 4.84314 18.1738 5.04706C17.8896 5.25098 17.6054 5.35294 17.3213 5.35294C16.7788 5.35294 16.3525 5.16176 16.0425 4.77941C15.7325 4.39706 15.655 3.98922 15.81 3.55588C16.1717 2.48529 16.8113 1.62525 17.7289 0.975765C18.6465 0.326275 19.7119 0.00101961 20.925 0C22.4492 0 23.7346 0.515922 24.7814 1.54776C25.8282 2.57961 26.351 3.848 26.35 5.35294C26.35 6.85686 25.8271 8.12525 24.7814 9.15812C23.7357 10.191 22.4502 10.7069 20.925 10.7059H1.55001ZM27.8225 22.4824C27.28 22.7118 26.7695 22.6924 26.2911 22.4242C25.8127 22.1561 25.574 21.7166 25.575 21.1059C25.575 20.8255 25.6783 20.5517 25.885 20.2846C26.0917 20.0175 26.3888 19.7814 26.7763 19.5765C27.1379 19.3725 27.4154 19.0983 27.6086 18.7536C27.8018 18.409 27.899 18.0205 27.9 17.5882C27.9 16.9255 27.6804 16.3775 27.2413 15.9441C26.8021 15.5108 26.2467 15.2941 25.575 15.2941H1.55001C1.11084 15.2941 0.742455 15.1473 0.444855 14.8536C0.147255 14.56 -0.00102797 14.197 5.36332e-06 13.7647C5.36332e-06 13.3314 0.148805 12.9679 0.446405 12.6742C0.744005 12.3806 1.11187 12.2343 1.55001 12.2353H25.575C27.0992 12.2353 28.3846 12.7512 29.4314 13.7831C30.4782 14.8149 31.001 16.0833 31 17.5882C31 18.6843 30.7091 19.6657 30.1274 20.5324C29.5456 21.399 28.7773 22.049 27.8225 22.4824Z" fill="white"/>
</svg>
