<svg width="31" height="24" viewBox="0 0 31 24" fill="none" xmlns="http://www.w3.org/2000/svg">
<g filter="url(#filter0_d_8_65)">
<path d="M12.6476 15.1141L6.69942 9.60326C5.97497 8.93206 5.8133 8.16408 6.21442 7.29929C6.61554 6.43451 7.33008 6.00141 8.35804 6H20.14C21.1694 6 21.8848 6.4331 22.2859 7.29929C22.687 8.16549 22.5246 8.93348 21.7986 9.60326L15.8504 15.1141C15.6217 15.3261 15.3738 15.4851 15.1069 15.591C14.84 15.697 14.554 15.75 14.249 15.75C13.944 15.75 13.658 15.697 13.3911 15.591C13.1242 15.4851 12.8764 15.3261 12.6476 15.1141Z" fill="white"/>
</g>
<defs>
<filter id="filter0_d_8_65" x="0" y="0" width="30.5" height="23.75" filterUnits="userSpaceOnUse" color-interpolation-filters="sRGB">
<feFlood flood-opacity="0" result="BackgroundImageFix"/>
<feColorMatrix in="SourceAlpha" type="matrix" values="0 0 0 0 0 0 0 0 0 0 0 0 0 0 0 0 0 0 127 0" result="hardAlpha"/>
<feOffset dx="1" dy="1"/>
<feGaussianBlur stdDeviation="3.5"/>
<feComposite in2="hardAlpha" operator="out"/>
<feColorMatrix type="matrix" values="0 0 0 0 0 0 0 0 0 0 0 0 0 0 0 0 0 0 0.25 0"/>
<feBlend mode="normal" in2="BackgroundImageFix" result="effect1_dropShadow_8_65"/>
<feBlend mode="normal" in="SourceGraphic" in2="effect1_dropShadow_8_65" result="shape"/>
</filter>
</defs>
</svg>
