<svg width="36" height="36" viewBox="0 0 36 36" fill="none" xmlns="http://www.w3.org/2000/svg">
<path d="M19.5 18.2625L22.875 21.6375C23.15 21.9125 23.2875 22.2565 23.2875 22.6695C23.2875 23.0825 23.15 23.4385 22.875 23.7375C22.575 24.0375 22.2185 24.1875 21.8055 24.1875C21.3925 24.1875 21.0365 24.0375 20.7375 23.7375L16.95 19.95C16.8 19.8 16.6875 19.631 16.6125 19.443C16.5375 19.255 16.5 19.0615 16.5 18.8625V13.5C16.5 13.075 16.644 12.7185 16.932 12.4305C17.22 12.1425 17.576 11.999 18 12C18.425 12 18.7815 12.144 19.0695 12.432C19.3575 12.72 19.501 13.076 19.5 13.5V18.2625ZM18 9C17.575 9 17.2185 8.856 16.9305 8.568C16.6425 8.28 16.499 7.924 16.5 7.5V6H19.5V7.5C19.5 7.925 19.356 8.2815 19.068 8.5695C18.78 8.8575 18.424 9.001 18 9ZM27 18C27 17.575 27.144 17.2185 27.432 16.9305C27.72 16.6425 28.076 16.499 28.5 16.5H30V19.5H28.5C28.075 19.5 27.7185 19.356 27.4305 19.068C27.1425 18.78 26.999 18.424 27 18ZM18 27C18.425 27 18.7815 27.144 19.0695 27.432C19.3575 27.72 19.501 28.076 19.5 28.5V30H16.5V28.5C16.5 28.075 16.644 27.7185 16.932 27.4305C17.22 27.1425 17.576 26.999 18 27ZM9 18C9 18.425 8.856 18.7815 8.568 19.0695C8.28 19.3575 7.924 19.501 7.5 19.5H6V16.5H7.5C7.925 16.5 8.2815 16.644 8.5695 16.932C8.8575 17.22 9.001 17.576 9 18ZM18 33C15.925 33 13.975 32.606 12.15 31.818C10.325 31.03 8.7375 29.9615 7.3875 28.6125C6.0375 27.2625 4.969 25.675 4.182 23.85C3.395 22.025 3.001 20.075 3 18C3 15.925 3.394 13.975 4.182 12.15C4.97 10.325 6.0385 8.7375 7.3875 7.3875C8.7375 6.0375 10.325 4.969 12.15 4.182C13.975 3.395 15.925 3.001 18 3C20.075 3 22.025 3.394 23.85 4.182C25.675 4.97 27.2625 6.0385 28.6125 7.3875C29.9625 8.7375 31.0315 10.325 31.8195 12.15C32.6075 13.975 33.001 15.925 33 18C33 20.075 32.606 22.025 31.818 23.85C31.03 25.675 29.9615 27.2625 28.6125 28.6125C27.2625 29.9625 25.675 31.0315 23.85 31.8195C22.025 32.6075 20.075 33.001 18 33ZM30 18C30 14.65 28.8375 11.8125 26.5125 9.4875C24.1875 7.1625 21.35 6 18 6C14.65 6 11.8125 7.1625 9.4875 9.4875C7.1625 11.8125 6 14.65 6 18C6 21.35 7.1625 24.1875 9.4875 26.5125C11.8125 28.8375 14.65 30 18 30C21.35 30 24.1875 28.8375 26.5125 26.5125C28.8375 24.1875 30 21.35 30 18Z" fill="white"/>
</svg>
