<svg width="27" height="21" viewBox="0 0 27 21" fill="none" xmlns="http://www.w3.org/2000/svg">
<path d="M27 9.27679C27.0001 10.0838 26.7687 10.8739 26.3333 11.5534C25.8979 12.2329 25.2766 12.7732 24.5434 13.1102C24.2495 12.5945 23.8798 12.1258 23.4466 11.7199C24.0946 11.5434 24.6459 11.1167 24.9792 10.5337C25.3126 9.95067 25.4007 9.25913 25.2242 8.61117C25.0476 7.96321 24.6209 7.41192 24.0379 7.07857C23.4549 6.74522 22.7634 6.65712 22.1154 6.83366C21.9988 6.86526 21.8768 6.87146 21.7575 6.85181C21.6383 6.83217 21.5247 6.78715 21.4244 6.7198C21.3241 6.65245 21.2395 6.56434 21.1762 6.46144C21.1129 6.35853 21.0724 6.24323 21.0575 6.12333C20.9382 5.15709 20.5428 4.24575 19.9186 3.49857C19.2944 2.75139 18.468 2.20007 17.5384 1.91069C16.6089 1.62131 15.6156 1.60615 14.6776 1.86703C13.7396 2.12791 12.8968 2.65377 12.2501 3.38156C11.5291 3.34847 10.8068 3.39829 10.0972 3.53003C10.7442 2.33852 11.735 1.3694 12.9405 0.748812C14.146 0.128228 15.5104 -0.115066 16.8561 0.0505976C18.2018 0.216262 19.4664 0.783211 20.4854 1.67764C21.5044 2.57208 22.2305 3.75256 22.5693 5.06543C23.1403 5.03661 23.7112 5.12417 24.2473 5.32279C24.7834 5.5214 25.2735 5.82693 25.6879 6.2208C26.1023 6.61468 26.4323 7.08868 26.6578 7.61402C26.8834 8.13936 26.9998 8.70507 27 9.27679Z" fill="white"/>
<path d="M11.8145 5.05865C13.6824 5.0583 15.4848 5.74647 16.8772 6.99158C18.2695 8.23668 19.154 9.95134 19.3616 11.8076H19.4071C20.5259 11.8076 21.5987 12.252 22.3898 13.0431C23.1808 13.8341 23.6252 14.907 23.6252 16.0257C23.6252 17.1445 23.1808 18.2173 22.3898 19.0084C21.5987 19.7994 20.5259 20.2439 19.4071 20.2439H5.06556C3.75855 20.2448 2.50182 19.7402 1.55844 18.8356C0.615055 17.931 0.0581512 16.6966 0.00430193 15.3907C-0.0495474 14.0848 0.403832 12.8087 1.26954 11.8295C2.13524 10.8503 3.34616 10.2439 4.64881 10.1373C5.17021 8.65289 6.13966 7.36703 7.42325 6.4573C8.70685 5.54757 10.2413 5.05886 11.8145 5.05865ZM17.7199 12.6513C17.7209 11.2129 17.1969 9.82365 16.2463 8.74423C15.2957 7.66481 13.9838 6.96944 12.5568 6.78864C11.1299 6.60784 9.68605 6.95404 8.49625 7.76226C7.30646 8.57048 6.45254 9.78515 6.09478 11.1783C6.04637 11.3668 5.93424 11.5328 5.77741 11.6482C5.62058 11.7635 5.42869 11.821 5.23428 11.811C4.78608 11.7911 4.33842 11.8608 3.91746 12.016C3.49651 12.1711 3.11073 12.4087 2.78268 12.7147C2.45463 13.0208 2.1909 13.3892 2.00692 13.7984C1.82294 14.2075 1.7224 14.6493 1.71118 15.0978C1.69997 15.5463 1.77829 15.9925 1.94159 16.4104C2.10488 16.8283 2.34986 17.2094 2.6622 17.5314C2.97454 17.8535 3.34797 18.1101 3.76063 18.2861C4.1733 18.4621 4.61693 18.5541 5.06556 18.5566H19.4071C19.766 18.5558 20.1206 18.4786 20.4473 18.3303C20.7741 18.182 21.0656 17.9659 21.3025 17.6963C21.5393 17.4267 21.7162 17.1099 21.8212 16.7667C21.9263 16.4236 21.9572 16.0621 21.9119 15.7061C21.8666 15.3501 21.746 15.0078 21.5583 14.702C21.3706 14.3961 21.12 14.1337 20.8232 13.9321C20.5263 13.7305 20.19 13.5943 19.8365 13.5326C19.4829 13.4709 19.1203 13.4851 18.7727 13.5742C18.6471 13.6064 18.5157 13.6091 18.3888 13.5823C18.2619 13.5554 18.1429 13.4997 18.0411 13.4194C17.9392 13.3391 17.8573 13.2364 17.8016 13.1193C17.7459 13.0021 17.7179 12.8737 17.7199 12.7441V12.6513Z" fill="white"/>
</svg>
