<svg width="37" height="37" viewBox="0 0 37 37" fill="none" xmlns="http://www.w3.org/2000/svg">
<g filter="url(#filter0_d_8_63)">
<path d="M25.9716 27.6714L19.2898 20.9801C18.6932 21.458 18.0071 21.8364 17.2315 22.1152C16.456 22.394 15.6307 22.5334 14.7557 22.5334C12.5881 22.5334 10.7537 21.7815 9.25273 20.2775C7.7517 18.7735 7.0008 16.9366 7 14.7667C7 12.596 7.75091 10.7591 9.25273 9.25593C10.7545 7.75277 12.5889 7.0008 14.7557 7C16.9233 7 18.7576 7.75198 20.2586 9.25593C21.7597 10.7599 22.5106 12.5968 22.5114 14.7667C22.5114 15.643 22.3722 16.4694 22.0937 17.2461C21.8153 18.0228 21.4375 18.7098 20.9602 19.3073L27.6719 26.0284C27.8906 26.2475 28 26.5164 28 26.835C28 27.1536 27.8807 27.4324 27.642 27.6714C27.4233 27.8905 27.1449 28 26.8068 28C26.4687 28 26.1903 27.8905 25.9716 27.6714ZM14.7557 20.1437C16.2472 20.1437 17.5151 19.6207 18.5595 18.5748C19.604 17.5289 20.1258 16.2595 20.125 14.7667C20.125 13.2731 19.6028 12.0034 18.5584 10.9574C17.5139 9.91152 16.2464 9.38896 14.7557 9.38976C13.2642 9.38976 11.9962 9.91272 10.9518 10.9586C9.90739 12.0046 9.38557 13.2739 9.38636 14.7667C9.38636 16.2603 9.90858 17.5301 10.953 18.576C11.9974 19.6219 13.265 20.1445 14.7557 20.1437Z" fill="white"/>
<path d="M25.9716 27.6714L19.2898 20.9801C18.6932 21.458 18.0071 21.8364 17.2315 22.1152C16.456 22.394 15.6307 22.5334 14.7557 22.5334C12.5881 22.5334 10.7537 21.7815 9.25273 20.2775C7.7517 18.7735 7.0008 16.9366 7 14.7667C7 12.596 7.75091 10.7591 9.25273 9.25593C10.7545 7.75277 12.5889 7.0008 14.7557 7C16.9233 7 18.7576 7.75198 20.2586 9.25593C21.7597 10.7599 22.5106 12.5968 22.5114 14.7667C22.5114 15.643 22.3722 16.4694 22.0937 17.2461C21.8153 18.0228 21.4375 18.7098 20.9602 19.3073L27.6719 26.0284C27.8906 26.2475 28 26.5164 28 26.835C28 27.1536 27.8807 27.4324 27.642 27.6714C27.4233 27.8905 27.1449 28 26.8068 28C26.4687 28 26.1903 27.8905 25.9716 27.6714ZM14.7557 20.1437C16.2472 20.1437 17.5151 19.6207 18.5595 18.5748C19.604 17.5289 20.1258 16.2595 20.125 14.7667C20.125 13.2731 19.6028 12.0034 18.5584 10.9574C17.5139 9.91152 16.2464 9.38896 14.7557 9.38976C13.2642 9.38976 11.9962 9.91272 10.9518 10.9586C9.90739 12.0046 9.38557 13.2739 9.38636 14.7667C9.38636 16.2603 9.90858 17.5301 10.953 18.576C11.9974 19.6219 13.265 20.1445 14.7557 20.1437Z" stroke="white"/>
</g>
<defs>
<filter id="filter0_d_8_63" x="0.5" y="0.5" width="36" height="36" filterUnits="userSpaceOnUse" color-interpolation-filters="sRGB">
<feFlood flood-opacity="0" result="BackgroundImageFix"/>
<feColorMatrix in="SourceAlpha" type="matrix" values="0 0 0 0 0 0 0 0 0 0 0 0 0 0 0 0 0 0 127 0" result="hardAlpha"/>
<feOffset dx="1" dy="1"/>
<feGaussianBlur stdDeviation="3.5"/>
<feComposite in2="hardAlpha" operator="out"/>
<feColorMatrix type="matrix" values="0 0 0 0 0 0 0 0 0 0 0 0 0 0 0 0 0 0 0.25 0"/>
<feBlend mode="normal" in2="BackgroundImageFix" result="effect1_dropShadow_8_63"/>
<feBlend mode="normal" in="SourceGraphic" in2="effect1_dropShadow_8_63" result="shape"/>
</filter>
</defs>
</svg>
