<svg width="15" height="29" viewBox="0 0 15 29" fill="none" xmlns="http://www.w3.org/2000/svg">
<path d="M4.75 10.35H10.25M4.75 16.6125C3.70147 17.2252 2.88199 18.1709 2.41866 19.3031C1.95534 20.4352 1.87405 21.6904 2.18741 22.8741C2.50077 24.0578 3.19127 25.1037 4.15181 25.8497C5.11236 26.5957 6.28926 27 7.5 27C8.71074 27 9.88764 26.5957 10.8482 25.8497C11.8087 25.1037 12.4992 24.0578 12.8126 22.8741C13.126 21.6904 13.0447 20.4352 12.5813 19.3031C12.118 18.1709 11.2985 17.2252 10.25 16.6125V4.78333C10.25 4.04514 9.96027 3.33719 9.44454 2.81522C8.92882 2.29324 8.22935 2 7.5 2C6.77066 2 6.07118 2.29324 5.55546 2.81522C5.03973 3.33719 4.75 4.04514 4.75 4.78333V16.6125Z" stroke="white" stroke-width="3" stroke-linecap="round" stroke-linejoin="round"/>
</svg>
